<?xml version="1.0" encoding="UTF-8"?>
<svg version="1.1" xmlns="http://www.w3.org/2000/svg" width="150" height="150">
<path d="M0 0 C1.08539063 -0.01160156 2.17078125 -0.02320312 3.2890625 -0.03515625 C14.04744906 0.00335826 23.72637726 2.15996119 33.25 7.1875 C33.9318335 7.5386084 34.61366699 7.8897168 35.31616211 8.25146484 C40.26687849 10.8557325 44.73801562 13.73918394 49 17.375 C49.56460938 17.7978125 50.12921875 18.220625 50.7109375 18.65625 C64.06148234 29.04671929 72.03590125 46.04150346 75 62.375 C75.38456571 66.719732 75.42159627 71.01565999 75.375 75.375 C75.38660156 76.46039063 75.39820313 77.54578125 75.41015625 78.6640625 C75.37164174 89.42244906 73.21503881 99.10137726 68.1875 108.625 C67.8363916 109.3068335 67.4852832 109.98866699 67.12353516 110.69116211 C64.5192675 115.64187849 61.63581606 120.11301562 58 124.375 C57.5771875 124.93960938 57.154375 125.50421875 56.71875 126.0859375 C46.32828071 139.43648234 29.33349654 147.41090125 13 150.375 C8.655268 150.75956571 4.35934001 150.79659627 0 150.75 C-1.08539063 150.76160156 -2.17078125 150.77320313 -3.2890625 150.78515625 C-14.04744906 150.74664174 -23.72637726 148.59003881 -33.25 143.5625 C-34.27275024 143.0358374 -34.27275024 143.0358374 -35.31616211 142.49853516 C-40.26687849 139.8942675 -44.73801562 137.01081606 -49 133.375 C-49.56460938 132.9521875 -50.12921875 132.529375 -50.7109375 132.09375 C-64.06148234 121.70328071 -72.03590125 104.70849654 -75 88.375 C-75.38456571 84.030268 -75.42159627 79.73434001 -75.375 75.375 C-75.38660156 74.28960937 -75.39820312 73.20421875 -75.41015625 72.0859375 C-75.37164174 61.32755094 -73.21503881 51.64862274 -68.1875 42.125 C-67.8363916 41.4431665 -67.4852832 40.76133301 -67.12353516 40.05883789 C-64.5192675 35.10812151 -61.63581606 30.63698438 -58 26.375 C-57.5771875 25.81039063 -57.154375 25.24578125 -56.71875 24.6640625 C-43.37333461 7.51675551 -21.01732579 -0.22465075 0 0 Z " fill="#041430" transform="translate(75,-0.375)"/>
<path d="M0 0 C3.04628424 0.92190605 4.67678628 1.5755975 6.63061523 4.14111328 C7.10184814 5.02524902 7.57308105 5.90938477 8.05859375 6.8203125 C8.60201416 7.81828857 9.14543457 8.81626465 9.70532227 9.84448242 C10.27694092 10.92705322 10.84855957 12.00962402 11.4375 13.125 C12.68292223 15.41643836 13.93037031 17.70677663 15.1796875 19.99609375 C15.49662064 20.58097061 15.81355377 21.16584747 16.14009094 21.76844788 C19.32883912 27.64509188 22.67759774 33.42228391 26.0625 39.1875 C26.63315186 40.16106445 27.20380371 41.13462891 27.79174805 42.13769531 C28.94159826 44.09716876 30.09255504 46.05599328 31.24462891 48.01416016 C33.06749063 51.11479977 34.88354977 54.21936264 36.69921875 57.32421875 C37.88249255 59.34133356 39.06607478 61.35826747 40.25 63.375 C40.79922119 64.31496826 41.34844238 65.25493652 41.91430664 66.22338867 C42.4221167 67.08552979 42.92992676 67.9476709 43.453125 68.8359375 C43.89817383 69.59438965 44.34322266 70.3528418 44.80175781 71.13427734 C45.9934235 73.13532769 45.9934235 73.13532769 48 75 C52.94285397 75.56530208 52.94285397 75.56530208 57.19244385 73.33197021 C59.43104687 70.44389641 59.51381833 68.938529 59.54589844 65.31347656 C59.56561707 64.17259583 59.58533569 63.03171509 59.60565186 61.85626221 C59.60688049 60.63010193 59.60810913 59.40394165 59.609375 58.140625 C59.62591125 56.88111023 59.64244751 55.62159546 59.65948486 54.32391357 C59.69982834 50.98317327 59.72314824 47.64319576 59.73822021 44.30230713 C59.75780505 40.89018257 59.79977332 37.47834085 59.83984375 34.06640625 C59.91385047 27.3776731 59.96542092 20.68904687 60 14 C60.99 13.67 61.98 13.34 63 13 C63.495 15.475 63.495 15.475 64 18 C65.98 18.495 65.98 18.495 68 19 C68 20.65 68 22.3 68 24 C69.98 24.495 69.98 24.495 72 25 C71.67 27.31 71.34 29.62 71 32 C72.32 32 73.64 32 75 32 C74.938125 32.94875 74.87625 33.8975 74.8125 34.875 C74.874375 35.90625 74.93625 36.9375 75 38 C76.485 38.99 76.485 38.99 78 40 C77.67 41.65 77.34 43.3 77 45 C78.485 45.99 78.485 45.99 80 47 C79.01 47.99 79.01 47.99 78 49 C78 49.99 78 50.98 78 52 C78.66 52.33 79.32 52.66 80 53 C80 53.66 80 54.32 80 55 C79.34 55 78.68 55 78 55 C78.66 57.31 79.32 59.62 80 62 C79.01 62.495 79.01 62.495 78 63 C78.495 66.465 78.495 66.465 79 70 C77.515 70.495 77.515 70.495 76 71 C76.33 72.98 76.66 74.96 77 77 C75.68 77 74.36 77 73 77 C73.495 80.465 73.495 80.465 74 84 C72.68 84.33 71.36 84.66 70 85 C70 86.65 70 88.3 70 90 C68.68 90.33 67.36 90.66 66 91 C66 92.65 66 94.3 66 96 C41.91 96 17.82 96 -7 96 C-8.60854012 92.78291976 -8.13821467 89.27601654 -8.12939453 85.74243164 C-8.13114685 84.88864426 -8.13289917 84.03485687 -8.13470459 83.15519714 C-8.13911776 80.32349637 -8.13618672 77.4918577 -8.1328125 74.66015625 C-8.13348576 72.69721973 -8.13445596 70.73428328 -8.13571167 68.77134705 C-8.13718797 64.65297656 -8.13503648 60.53462774 -8.13037109 56.41625977 C-8.1246776 51.13218744 -8.12795084 45.84816595 -8.13394356 40.5640955 C-8.13755419 36.50898352 -8.1364082 32.45388362 -8.13381577 28.39877129 C-8.13314769 26.45028108 -8.13397075 24.50178979 -8.13629532 22.55330086 C-8.13882962 19.83115858 -8.13497002 17.109099 -8.12939453 14.38696289 C-8.13141876 13.57802582 -8.13344299 12.76908875 -8.13552856 11.93563843 C-8.12320787 8.6950093 -8.03225531 6.09676592 -7 3 C-4.69 3 -2.38 3 0 3 C0 2.01 0 1.02 0 0 Z " fill="#F6D86F" transform="translate(56,19)"/>
<path d="M0 0 C4.11756319 1.30165327 5.79479419 2.54031163 7.9296875 6.28125 C8.414375 7.12300781 8.8990625 7.96476562 9.3984375 8.83203125 C10.12933594 10.15267578 10.12933594 10.15267578 10.875 11.5 C11.38546875 12.38042969 11.8959375 13.26085938 12.421875 14.16796875 C15.15130001 18.98503505 15.15130001 18.98503505 16 21 C15.67 21.66 15.34 22.32 15 23 C14.01 23 13.02 23 12 23 C11.34 22.01 10.68 21.02 10 20 C9.34 19.67 8.68 19.34 8 19 C7.60539977 16.67624308 7.27769908 14.3406065 7 12 C6.69096017 10.66082739 6.37057089 9.32346746 6 8 C5.01 8.33 4.02 8.66 3 9 C2.01 8.01 1.02 7.02 0 6 C-2.35785318 6.89335797 -2.35785318 6.89335797 -3.125 10.0625 C-3.41375 11.031875 -3.7025 12.00125 -4 13 C-4.66 13 -5.32 13 -6 13 C-5.67 14.98 -5.34 16.96 -5 19 C-5.66 19 -6.32 19 -7 19 C-6.67 37.81 -6.34 56.62 -6 76 C-5.01 75.505 -5.01 75.505 -4 75 C-4 75.66 -4 76.32 -4 77 C-3.071875 76.7215625 -3.071875 76.7215625 -2.125 76.4375 C-0 76 -0 76 2 77 C2 75.35 2 73.7 2 72 C3.98 71.505 3.98 71.505 6 71 C5.938125 69.88625 5.87625 68.7725 5.8125 67.625 C5.9053125 65.830625 5.9053125 65.830625 6 64 C9 62 9 62 11.625 61.5 C12.40875 61.335 13.1925 61.17 14 61 C14.33 60.34 14.66 59.68 15 59 C17.375 58.8125 17.375 58.8125 20 59 C20.66 59.99 21.32 60.98 22 62 C25.55672179 63.2188121 25.55672179 63.2188121 29 64 C29.495 67.96 29.495 67.96 30 72 C30.99 72 31.98 72 33 72 C34.4606285 74.64738916 35 75.89448334 35 79 C34.34 79 33.68 79 33 79 C33 79.66 33 80.32 33 81 C32.34 81 31.68 81 31 81 C31 82.32 31 83.64 31 85 C31.99 85 32.98 85 34 85 C32.57568513 88.06775511 31.09219926 90.21040099 29 93 C39.89 93 50.78 93 62 93 C62 91.35 62 89.7 62 88 C63.4375 85.875 63.4375 85.875 65 84 C65.495 82.515 65.495 82.515 66 81 C68.64 81.33 71.28 81.66 74 82 C74 82.66 74 83.32 74 84 C72.68 84.33 71.36 84.66 70 85 C70 86.65 70 88.3 70 90 C68.68 90.33 67.36 90.66 66 91 C66 92.65 66 94.3 66 96 C41.91 96 17.82 96 -7 96 C-8.60854012 92.78291976 -8.13821467 89.27601654 -8.12939453 85.74243164 C-8.13114685 84.88864426 -8.13289917 84.03485687 -8.13470459 83.15519714 C-8.13911776 80.32349637 -8.13618672 77.4918577 -8.1328125 74.66015625 C-8.13348576 72.69721973 -8.13445596 70.73428328 -8.13571167 68.77134705 C-8.13718797 64.65297656 -8.13503648 60.53462774 -8.13037109 56.41625977 C-8.1246776 51.13218744 -8.12795084 45.84816595 -8.13394356 40.5640955 C-8.13755419 36.50898352 -8.1364082 32.45388362 -8.13381577 28.39877129 C-8.13314769 26.45028108 -8.13397075 24.50178979 -8.13629532 22.55330086 C-8.13882962 19.83115858 -8.13497002 17.109099 -8.12939453 14.38696289 C-8.13141876 13.57802582 -8.13344299 12.76908875 -8.13552856 11.93563843 C-8.12320787 8.6950093 -8.03225531 6.09676592 -7 3 C-4.69 3 -2.38 3 0 3 C0 2.01 0 1.02 0 0 Z " fill="#D99D3E" transform="translate(56,19)"/>
<path d="M0 0 C0.66 0 1.32 0 2 0 C2.495 2.475 2.495 2.475 3 5 C4.32 5.33 5.64 5.66 7 6 C7 7.65 7 9.3 7 11 C8.32 11.33 9.64 11.66 11 12 C10.67 14.31 10.34 16.62 10 19 C11.32 19 12.64 19 14 19 C13.9071875 20.423125 13.9071875 20.423125 13.8125 21.875 C13.874375 22.90625 13.93625 23.9375 14 25 C14.99 25.66 15.98 26.32 17 27 C16.505 29.475 16.505 29.475 16 32 C16.99 32.66 17.98 33.32 19 34 C18.34 34.66 17.68 35.32 17 36 C17 36.99 17 37.98 17 39 C17.99 39.495 17.99 39.495 19 40 C19 40.66 19 41.32 19 42 C18.34 42 17.68 42 17 42 C17.66 44.31 18.32 46.62 19 49 C18.01 49.495 18.01 49.495 17 50 C17.495 53.465 17.495 53.465 18 57 C17.01 57.33 16.02 57.66 15 58 C15.495 60.97 15.495 60.97 16 64 C14.68 64 13.36 64 12 64 C12 65.98 12 67.96 12 70 C9.69 69.34 7.38 68.68 5 68 C4.814375 69.1446875 4.814375 69.1446875 4.625 70.3125 C4 73 4 73 2 76 C1.67 77.65 1.34 79.3 1 81 C-10.22 81 -21.44 81 -33 81 C-31 78 -29 75 -27 72 C-27.99 72 -28.98 72 -30 72 C-30 70.68 -30 69.36 -30 68 C-29.34 68 -28.68 68 -28 68 C-28 67.34 -28 66.68 -28 66 C-27.34 66 -26.68 66 -26 66 C-26.495 63.525 -26.495 63.525 -27 61 C-26.01 60.505 -26.01 60.505 -25 60 C-25 60.66 -25 61.32 -25 62 C-23.741875 61.79375 -22.48375 61.5875 -21.1875 61.375 C-17.5985242 60.78664331 -17.24926122 60.83382585 -14 63 C-9.24399706 63.60563333 -4.14963754 63.59352346 0 61 C0.83333333 59.08333333 0.83333333 59.08333333 1 57 C1.33 56.01 1.66 55.02 2 54 C1.85433594 53.17242187 1.70867187 52.34484375 1.55859375 51.4921875 C0.64290235 45.76751537 0.99817337 40.01385041 1.12695312 34.23046875 C1.1770177 29.93669543 1.16374933 26.01776651 0.0078125 21.86328125 C-1.14086971 17.45999945 -1.26233072 13.57991235 -1.1875 9.0625 C-1.18685547 8.29615234 -1.18621094 7.52980469 -1.18554688 6.74023438 C-1.14091099 1.14091099 -1.14091099 1.14091099 0 0 Z " fill="#EFC056" transform="translate(117,32)"/>
<path d="M0 0 C0.99 0 1.98 0 3 0 C3 25.41 3 50.82 3 77 C1.35 77 -0.3 77 -2 77 C-2 75.35 -2 73.7 -2 72 C-3.32 71.67 -4.64 71.34 -6 71 C-6 68.69 -6 66.38 -6 64 C-6.99 64 -7.98 64 -9 64 C-8.938125 63.05125 -8.87625 62.1025 -8.8125 61.125 C-8.9053125 59.578125 -8.9053125 59.578125 -9 58 C-9.99 57.34 -10.98 56.68 -12 56 C-11.67 54.35 -11.34 52.7 -11 51 C-11.99 50.67 -12.98 50.34 -14 50 C-14 49.34 -14 48.68 -14 48 C-13.01 47.505 -13.01 47.505 -12 47 C-12 46.01 -12 45.02 -12 44 C-12.66 43.67 -13.32 43.34 -14 43 C-13.835 41.906875 -13.67 40.81375 -13.5 39.6875 C-12.93281816 36.12474127 -12.93281816 36.12474127 -13 33 C-12.34 33 -11.68 33 -11 33 C-11.66 30.69 -12.32 28.38 -13 26 C-12.01 26 -11.02 26 -10 26 C-10.33 23.69 -10.66 21.38 -11 19 C-9.68 19 -8.36 19 -7 19 C-7.33 16.69 -7.66 14.38 -8 12 C-6.68 11.67 -5.36 11.34 -4 11 C-4 9.35 -4 7.7 -4 6 C-2.68 5.67 -1.36 5.34 0 5 C0 3.35 0 1.7 0 0 Z " fill="#F7DF79" transform="translate(31,35)"/>
<path d="M0 0 C0.66 0 1.32 0 2 0 C2.33 0.66 2.66 1.32 3 2 C6.465 1.505 6.465 1.505 10 1 C10 1.99 10 2.98 10 4 C11.65 4 13.3 4 15 4 C15 3.34 15 2.68 15 2 C15.66 2 16.32 2 17 2 C17 3.32 17 4.64 17 6 C20.465 5.505 20.465 5.505 24 5 C24 6.32 24 7.64 24 9 C24.99 9.33 25.98 9.66 27 10 C27 22.54 27 35.08 27 48 C24.525 48.495 24.525 48.495 22 49 C16.55267628 40.36438975 11.41937846 31.57341968 6.38964844 22.6887207 C3.39248995 17.40159279 0.31101627 12.18453964 -2.89404297 7.02026367 C-4 5 -4 5 -4 3 C-2.68 3 -1.36 3 0 3 C0 2.01 0 1.02 0 0 Z " fill="#E9B953" transform="translate(77,15)"/>
<path d="M0 0 C2.375 -0.1875 2.375 -0.1875 5 0 C5.66 0.99 6.32 1.98 7 3 C10.55672179 4.2188121 10.55672179 4.2188121 14 5 C14.33 7.64 14.66 10.28 15 13 C15.66 13 16.32 13 17 13 C17 14.65 17 16.3 17 18 C16.34 18.33 15.68 18.66 15 19 C14.62599214 21.32716 14.29235267 23.66117862 14 26 C13 27 13 27 9.5 27.4375 C8.345 27.623125 7.19 27.80875 6 28 C5.67 28.66 5.34 29.32 5 30 C2.6875 30.1875 2.6875 30.1875 0 30 C-1 29 -2 28 -3 27 C-6.10839021 26.2730774 -6.10839021 26.2730774 -9 26 C-9.12375 24.865625 -9.2475 23.73125 -9.375 22.5625 C-9.58125 21.386875 -9.7875 20.21125 -10 19 C-10.66 18.67 -11.32 18.34 -12 18 C-12 16.35 -12 14.7 -12 13 C-11.01 12.67 -10.02 12.34 -9 12 C-9.061875 10.88625 -9.12375 9.7725 -9.1875 8.625 C-9.125625 7.42875 -9.06375 6.2325 -9 5 C-6 3 -6 3 -3.375 2.5 C-2.59125 2.335 -1.8075 2.17 -1 2 C-0.67 1.34 -0.34 0.68 0 0 Z " fill="#0D1423" transform="translate(71,78)"/>
<path d="M0 0 C2.64 0.33 5.28 0.66 8 1 C8 1.66 8 2.32 8 3 C6.68 3.33 5.36 3.66 4 4 C4 5.65 4 7.3 4 9 C2.68 9.33 1.36 9.66 0 10 C0 11.65 0 13.3 0 15 C-24.09 15 -48.18 15 -73 15 C-71 13 -71 13 -67.9375 12.0625 C-66.968125 11.711875 -65.99875 11.36125 -65 11 C-64.67 10.01 -64.34 9.02 -64 8 C-61.13275314 8.57344937 -60.1385485 8.8614515 -58 11 C-54.87802522 9.6910428 -54.87802522 9.6910428 -53 7 C-52.01 8.485 -52.01 8.485 -51 10 C-46.9528952 10.89935662 -43.95950286 11.13128653 -40 10 C-39.01 10.33 -38.02 10.66 -37 11 C-37 11.33 -37 11.66 -37 12 C-26.11 12 -15.22 12 -4 12 C-4 10.35 -4 8.7 -4 7 C-2.5625 4.875 -2.5625 4.875 -1 3 C-0.67 2.01 -0.34 1.02 0 0 Z " fill="#DD942A" transform="translate(122,100)"/>
<path d="M0 0 C1.97338867 0.93701172 1.97338867 0.93701172 4 3 C4.60149446 5.99422439 4.48801271 8.96403724 4.42578125 12.0078125 C4.42249313 12.88903778 4.41920502 13.77026306 4.41581726 14.67819214 C4.40539761 16.53928011 4.38544961 18.40033556 4.35668945 20.26123047 C4.31256252 23.12094815 4.29524892 25.97982759 4.28320312 28.83984375 C4.26978167 30.64584554 4.25485942 32.45183693 4.23828125 34.2578125 C4.23089432 35.11819122 4.22350739 35.97856995 4.21589661 36.86502075 C4.11827481 42.88172519 4.11827481 42.88172519 3 44 C-2.12290398 44.39406954 -4.74642142 43.79520878 -9 41 C-9.99 41.495 -9.99 41.495 -11 42 C-10.34 39.69 -9.68 37.38 -9 35 C-9.66 34.67 -10.32 34.34 -11 34 C-13.12821884 36.81711646 -13.12821884 36.81711646 -15 40 C-14.67 40.99 -14.34 41.98 -14 43 C-14.99 43.495 -14.99 43.495 -16 44 C-18.97 38.72 -21.94 33.44 -25 28 C-22 26 -22 26 -20 26 C-18.87024167 22.68604223 -17.82115227 19.40297337 -17 16 C-16.61666504 16.68102783 -16.23333008 17.36205566 -15.83837891 18.0637207 C-14.10179406 21.14732933 -12.36341842 24.22992473 -10.625 27.3125 C-10.02171875 28.38435547 -9.4184375 29.45621094 -8.796875 30.56054688 C-7.92675781 32.10258789 -7.92675781 32.10258789 -7.0390625 33.67578125 C-6.50490723 34.62364502 -5.97075195 35.57150879 -5.42041016 36.5480957 C-4.34501283 38.40444072 -3.19002214 40.21496679 -2 42 C-0.68 42 0.64 42 2 42 C2 29.46 2 16.92 2 4 C1.34 3.67 0.68 3.34 0 3 C0 2.01 0 1.02 0 0 Z " fill="#0F1723" transform="translate(101,21)"/>
<path d="M0 0 C4.11756319 1.30165327 5.79479419 2.54031163 7.9296875 6.28125 C8.414375 7.12300781 8.8990625 7.96476562 9.3984375 8.83203125 C10.12933594 10.15267578 10.12933594 10.15267578 10.875 11.5 C11.38546875 12.38042969 11.8959375 13.26085938 12.421875 14.16796875 C15.15130001 18.98503505 15.15130001 18.98503505 16 21 C15.67 21.66 15.34 22.32 15 23 C14.01 23 13.02 23 12 23 C11.34 22.01 10.68 21.02 10 20 C9.34 19.67 8.68 19.34 8 19 C7.60539977 16.67624308 7.27769908 14.3406065 7 12 C6.69096017 10.66082739 6.37057089 9.32346746 6 8 C5.01 8.33 4.02 8.66 3 9 C2.01 8.01 1.02 7.02 0 6 C-2.35785318 6.89335797 -2.35785318 6.89335797 -3.125 10.0625 C-3.41375 11.031875 -3.7025 12.00125 -4 13 C-4.66 13 -5.32 13 -6 13 C-5.67 14.98 -5.34 16.96 -5 19 C-5.66 19 -6.32 19 -7 19 C-7 43.75 -7 68.5 -7 94 C-7.33 94 -7.66 94 -8 94 C-8.02314613 82.57804131 -8.04092671 71.15608818 -8.05181217 59.73411083 C-8.05703601 54.43072368 -8.06412466 49.12735254 -8.07543945 43.82397461 C-8.08628599 38.70819758 -8.0922806 33.59243597 -8.09487724 28.47664833 C-8.09672829 26.52257354 -8.1003428 24.56849962 -8.10573006 22.61443138 C-8.11296388 19.88250258 -8.11398994 17.15063797 -8.11352539 14.41870117 C-8.11712067 13.60662201 -8.12071594 12.79454285 -8.12442017 11.95785522 C-8.11842067 8.70830577 -8.03515438 6.10546315 -7 3 C-4.69 3 -2.38 3 0 3 C0 2.01 0 1.02 0 0 Z " fill="#C2A662" transform="translate(56,19)"/>
<path d="M0 0 C0.33 0 0.66 0 1 0 C2.69731056 7.74594281 3.23309564 15.02289611 3.0625 22.9375 C3.02801549 24.94654184 2.99788719 26.95566439 2.97265625 28.96484375 C2.95468994 29.8374585 2.93672363 30.71007324 2.91821289 31.60913086 C2.91039025 33.98595239 2.91039025 33.98595239 3.57202148 36.15454102 C4 38 4 38 2.875 40.5625 C0.68770181 43.40598764 -0.67353004 44.62602328 -4 46 C-8.24448437 46.41099761 -11.9423079 46.35256403 -16 45 C-16 44.34 -16 43.68 -16 43 C-16.7425 43.185625 -17.485 43.37125 -18.25 43.5625 C-20.94990963 43.99203108 -22.44631077 43.85122974 -25 43 C-25.66 43.99 -26.32 44.98 -27 46 C-27 44.35 -27 42.7 -27 41 C-27.99 41 -28.98 41 -30 41 C-30.66 38.36 -31.32 35.72 -32 33 C-33.65 32.67 -35.3 32.34 -37 32 C-37 31.67 -37 31.34 -37 31 C-33.04 30.505 -33.04 30.505 -29 30 C-29 30.66 -29 31.32 -29 32 C-28.34 32.66 -27.68 33.32 -27 34 C-27.99 34 -28.98 34 -30 34 C-29.67 35.32 -29.34 36.64 -29 38 C-26.525 37.505 -26.525 37.505 -24 37 C-24 37.66 -24 38.32 -24 39 C-22.05925139 38.72382467 -22.05925139 38.72382467 -20 38 C-19.34 37.01 -18.68 36.02 -18 35 C-17.65066406 35.56589844 -17.30132812 36.13179687 -16.94140625 36.71484375 C-16.25884766 37.81505859 -16.25884766 37.81505859 -15.5625 38.9375 C-15.11003906 39.66839844 -14.65757813 40.39929688 -14.19140625 41.15234375 C-13.13135967 42.93899809 -13.13135967 42.93899809 -12 44 C-7.13904981 44.47900559 -7.13904981 44.47900559 -2.80761719 42.55175781 C-0.13108416 38.77337813 -0.39713934 35.38897428 -0.390625 30.859375 C-0.37408875 29.97719299 -0.35755249 29.09501099 -0.34051514 28.18609619 C-0.29200806 25.3739935 -0.27065845 22.56243168 -0.25 19.75 C-0.22184254 17.84111858 -0.19191543 15.93226239 -0.16015625 14.0234375 C-0.08624846 9.34900286 -0.03669045 4.67486894 0 0 Z " fill="#DFC675" transform="translate(116,50)"/>
<path d="M0 0 C0.99 0 1.98 0 3 0 C3 25.41 3 50.82 3 77 C1.35 77 -0.3 77 -2 77 C-2 75.35 -2 73.7 -2 72 C-3.32 71.67 -4.64 71.34 -6 71 C-6 68.69 -6 66.38 -6 64 C-6.99 64 -7.98 64 -9 64 C-7.95125002 61.37812506 -7.35068687 60.20628639 -4.875 58.75 C-4.25625 58.5025 -3.6375 58.255 -3 58 C-2.34 59.32 -1.68 60.64 -1 62 C-0.67 60.35 -0.34 58.7 0 57 C0.33 57 0.66 57 1 57 C1.02528819 49.20378306 1.04284068 41.40757664 1.05493164 33.61132812 C1.05997042 30.95735275 1.06680151 28.30338016 1.07543945 25.64941406 C1.08752489 21.84178989 1.09323275 18.03420231 1.09765625 14.2265625 C1.10281754 13.03382721 1.10797882 11.84109192 1.11329651 10.61221313 C1.11337204 9.51122284 1.11344757 8.41023254 1.11352539 7.27587891 C1.115746 6.30325104 1.11796661 5.33062317 1.12025452 4.32852173 C1.15456804 1.97539612 1.15456804 1.97539612 0 0 Z " fill="#C1A35E" transform="translate(31,35)"/>
<path d="M0 0 C4.08850302 0.19016293 5.77712151 0.81031618 8.9375 3.5 C10.94906381 6.21038631 11.344484 8.20416374 11.1875 11.5625 C10.59819745 14.91699143 9.72653822 16.78254731 7.1875 19.0625 C4 21 4 21 0 21 C-1.07875823 13.80827843 -0.7938642 7.21805755 0 0 Z " fill="#E5B254" transform="translate(73,83)"/>
<path d="M0 0 C0.33 0.66 0.66 1.32 1 2 C1.61875 1.814375 2.2375 1.62875 2.875 1.4375 C5 1 5 1 7 2 C7 2.66 7 3.32 7 4 C7.99 4 8.98 4 10 4 C10 5.98 10 7.96 10 10 C9.360625 10.28875 8.72125 10.5775 8.0625 10.875 C5.84793921 11.82823451 5.84793921 11.82823451 5 14 C5.66 14.33 6.32 14.66 7 15 C6.4375 16.9375 6.4375 16.9375 5 19 C2.67833603 19.4067333 0.34318961 19.74501373 -2 20 C-2.05425226 17.60385874 -2.09379027 15.20896147 -2.125 12.8125 C-2.14175781 12.13896484 -2.15851562 11.46542969 -2.17578125 10.77148438 C-2.21538674 6.71192193 -1.80020002 3.65001185 0 0 Z M7 13 C9 14 9 14 9 14 Z " fill="#E8AA3D" transform="translate(51,94)"/>
<path d="M0 0 C0.99 0 1.98 0 3 0 C2.125 6.875 2.125 6.875 1 8 C-1.26991887 8.09439978 -3.54281967 8.11742226 -5.81469727 8.11352539 C-6.88293228 8.11374443 -6.88293228 8.11374443 -7.9727478 8.1139679 C-10.33733112 8.1132687 -12.70183661 8.10547606 -15.06640625 8.09765625 C-16.70165463 8.09579209 -18.33690357 8.09436818 -19.97215271 8.09336853 C-24.28434785 8.08954318 -28.59650952 8.07971275 -32.90869141 8.06866455 C-37.30565946 8.0584508 -41.70263289 8.05387099 -46.09960938 8.04882812 C-54.73308831 8.03809049 -63.36654 8.02101387 -72 8 C-72.33 7.34 -72.66 6.68 -73 6 C-48.91 6 -24.82 6 0 6 C-0.495 3.525 -0.495 3.525 -1 1 C-0.67 0.67 -0.34 0.34 0 0 Z " fill="#201712" transform="translate(122,109)"/>
<path d="M0 0 C0.33 0 0.66 0 1 0 C1 6.93 1 13.86 1 21 C7.56444514 18.7393376 7.56444514 18.7393376 9.9375 15.9375 C11.49357801 11.63540197 11.23730312 7.52633725 11 3 C12.5 4.375 12.5 4.375 14 6 C14 6.66 14 7.32 14 8 C14.66 8 15.32 8 16 8 C16 9.65 16 11.3 16 13 C15.01 13.495 15.01 13.495 14 14 C13.62599214 16.32716 13.29235267 18.66117862 13 21 C12 22 12 22 8.5 22.4375 C7.345 22.623125 6.19 22.80875 5 23 C4.67 23.66 4.34 24.32 4 25 C1.6875 25.1875 1.6875 25.1875 -1 25 C-2 24 -3 23 -4 22 C-7.10839021 21.2730774 -7.10839021 21.2730774 -10 21 C-10.33 18.36 -10.66 15.72 -11 13 C-10.01 13.33 -9.02 13.66 -8 14 C-8 15.98 -8 17.96 -8 20 C-5.69 20 -3.38 20 -1 20 C-1 17.03 -1 14.06 -1 11 C-2.32 10.67 -3.64 10.34 -5 10 C-3.35 9.67 -1.7 9.34 0 9 C0 6.03 0 3.06 0 0 Z " fill="#191312" transform="translate(72,83)"/>
<path d="M0 0 C2.64 0.33 5.28 0.66 8 1 C8 1.66 8 2.32 8 3 C6.68 3.33 5.36 3.66 4 4 C4 5.65 4 7.3 4 9 C2.68 9.33 1.36 9.66 0 10 C0 11.65 0 13.3 0 15 C-24.09 15 -48.18 15 -73 15 C-73 14.67 -73 14.34 -73 14 C-72.16506012 13.98969254 -71.33012024 13.97938507 -70.46987915 13.96876526 C-62.61201027 13.87090025 -54.75421858 13.76840161 -46.89647865 13.66066074 C-42.85646949 13.6054309 -38.81645309 13.55201081 -34.77636719 13.50268555 C-30.87949595 13.45504287 -26.98271391 13.40270011 -23.08594894 13.34705925 C-21.59718412 13.32663525 -20.10839484 13.30792224 -18.61958694 13.29092598 C-16.53878157 13.26688289 -14.45814525 13.23682841 -12.37744141 13.20532227 C-10.59873154 13.18200584 -10.59873154 13.18200584 -8.78408813 13.15821838 C-6.04361935 13.18670351 -6.04361935 13.18670351 -4 12 C-4.061875 11.2575 -4.12375 10.515 -4.1875 9.75 C-3.96568069 6.49665015 -3.0474909 5.45698908 -1 3 C-0.67 2.01 -0.34 1.02 0 0 Z " fill="#C29153" transform="translate(122,100)"/>
<path d="M0 0 C2.62187494 1.04874998 3.79371361 1.64931313 5.25 4.125 C5.4975 4.74375 5.745 5.3625 6 6 C7.98 5.67 9.96 5.34 12 5 C12.33 5.99 12.66 6.98 13 8 C12.649375 8.639375 12.29875 9.27875 11.9375 9.9375 C11.628125 10.618125 11.31875 11.29875 11 12 C11.8499169 14.03327085 11.8499169 14.03327085 13 16 C13 17.32 13 18.64 13 20 C14.65 20 16.3 20 18 20 C18.33 17.36 18.66 14.72 19 12 C19.33 12 19.66 12 20 12 C20 17.28 20 22.56 20 28 C15 27 15 27 13.37841797 25.05395508 C12.69223389 23.79941528 12.69223389 23.79941528 11.9921875 22.51953125 C11.48042969 21.60236328 10.96867187 20.68519531 10.44140625 19.74023438 C9.92449219 18.77408203 9.40757813 17.80792969 8.875 16.8125 C8.35035156 15.86568359 7.82570313 14.91886719 7.28515625 13.94335938 C4.751096 9.34676654 2.29962744 4.71820113 0 0 Z " fill="#EBC867" transform="translate(83,36)"/>
<path d="M0 0 C0.99 0 1.98 0 3 0 C2.938125 0.94875 2.87625 1.8975 2.8125 2.875 C2.874375 3.90625 2.93625 4.9375 3 6 C3.99 6.66 4.98 7.32 6 8 C5.67 9.65 5.34 11.3 5 13 C5.99 13.66 6.98 14.32 8 15 C7.34 15.66 6.68 16.32 6 17 C6 17.99 6 18.98 6 20 C6.66 20.33 7.32 20.66 8 21 C8 21.66 8 22.32 8 23 C7.34 23 6.68 23 6 23 C6.66 25.31 7.32 27.62 8 30 C6.33333333 31.66666667 4.66666667 33.33333333 3 35 C2.67 34.34 2.34 33.68 2 33 C1.01 33.495 1.01 33.495 0 34 C0.11362262 32.5199159 0.24122908 31.04089926 0.375 29.5625 C0.44460937 28.73878906 0.51421875 27.91507813 0.5859375 27.06640625 C0.79089844 26.04353516 0.79089844 26.04353516 1 25 C1.66 24.67 2.32 24.34 3 24 C2.50886719 23.02933594 2.01773438 22.05867188 1.51171875 21.05859375 C-0.36047423 16.69014347 -0.34419687 12.75135254 -0.1875 8.0625 C-0.17396484 7.28326172 -0.16042969 6.50402344 -0.14648438 5.70117188 C-0.11150224 3.80047596 -0.05770959 1.90014166 0 0 Z " fill="#EBD780" transform="translate(128,51)"/>
<path d="M0 0 C0.33 0 0.66 0 1 0 C1.125 7.75 1.125 7.75 0 10 C-0.06996014 11.70702735 -0.08440154 13.41668003 -0.0625 15.125 C-0.04896484 16.49011719 -0.04896484 16.49011719 -0.03515625 17.8828125 C-0.02355469 18.58148438 -0.01195312 19.28015625 0 20 C-0.90492187 19.73896484 -0.90492187 19.73896484 -1.828125 19.47265625 C-4.4819339 18.8951187 -6.38967219 19.34741805 -9 20 C-8.67 21.65 -8.34 23.3 -8 25 C-8.99 25.33 -9.98 25.66 -11 26 C-11 27.65 -11 29.3 -11 31 C-14 27.25 -14 27.25 -14 25 C-13.01 25 -12.02 25 -11 25 C-11.33 22.69 -11.66 20.38 -12 18 C-10.68 18 -9.36 18 -8 18 C-8.33 15.69 -8.66 13.38 -9 11 C-7.68 10.67 -6.36 10.34 -5 10 C-5 8.35 -5 6.7 -5 5 C-3.68 4.67 -2.36 4.34 -1 4 C-0.67 2.68 -0.34 1.36 0 0 Z " fill="#F1D16B" transform="translate(32,36)"/>
<path d="M0 0 C1.32 0 2.64 0 4 0 C2.99489025 3.01532925 2.53844009 4.18682851 0 6 C-1.65 5.67 -3.3 5.34 -5 5 C-5 35.69 -5 66.38 -5 98 C-5.66 98 -6.32 98 -7 98 C-7 66.98 -7 35.96 -7 4 C-4.69 4 -2.38 4 0 4 C0 2.68 0 1.36 0 0 Z " fill="#10120E" transform="translate(54,17)"/>
<path d="M0 0 C0.66 0 1.32 0 2 0 C2.28875 0.78375 2.5775 1.5675 2.875 2.375 C3.84912254 5.09671632 3.84912254 5.09671632 6 7 C6 7.99 6 8.98 6 10 C8.64 9.67 11.28 9.34 14 9 C13.47731534 6.23723823 12.89130413 3.6739124 12 1 C12.66 1 13.32 1 14 1 C15.63863397 3.43133054 17.14921334 5.84771535 18.625 8.375 C19.25535156 9.42300781 19.25535156 9.42300781 19.8984375 10.4921875 C23 15.72859172 23 15.72859172 23 18 C22.01 17.67 21.02 17.34 20 17 C19.67 15.35 19.34 13.7 19 12 C18.01 12.33 17.02 12.66 16 13 C15.34 12.34 14.68 11.68 14 11 C13.690625 11.61875 13.38125 12.2375 13.0625 12.875 C12.375 14.25 11.6875 15.625 11 17 C11.89363605 19.60931266 11.89363605 19.60931266 13 22 C13.66 22 14.32 22 15 22 C15.66 23.65 16.32 25.3 17 27 C16.01 27 15.02 27 14 27 C12.0007529 23.47928939 10.00707831 19.95548996 8.01855469 16.42871094 C7.34105082 15.22895097 6.66202019 14.03005184 5.98144531 12.83203125 C5.0044672 11.11163831 4.03339468 9.38789591 3.0625 7.6640625 C2.47597656 6.62717285 1.88945313 5.5902832 1.28515625 4.52197266 C0 2 0 2 0 0 Z " fill="#071533" transform="translate(60,19)"/>
<path d="M0 0 C12.54 0 25.08 0 38 0 C38 0.66 38 1.32 38 2 C36.02 2 34.04 2 32 2 C31.67 2.66 31.34 3.32 31 4 C30.34 4 29.68 4 29 4 C29 3.34 29 2.68 29 2 C27.01508358 2.26676204 27.01508358 2.26676204 25 3 C24.67 3.99 24.34 4.98 24 6 C23.34 6 22.68 6 22 6 C21.67 5.34 21.34 4.68 21 4 C18.97536745 3.34786708 18.97536745 3.34786708 17 3 C17 3.99 17 4.98 17 6 C16.01 6 15.02 6 14 6 C14 5.01 14 4.02 14 3 C12.68 3 11.36 3 10 3 C10 3.66 10 4.32 10 5 C9.01 5 8.02 5 7 5 C7 4.01 7 3.02 7 2 C4.69 2.33 2.38 2.66 0 3 C0 2.01 0 1.02 0 0 Z " fill="#B17133" transform="translate(59,129)"/>
<path d="M0 0 C0.66 0 1.32 0 2 0 C2.33 1.65 2.66 3.3 3 5 C4.32 5.33 5.64 5.66 7 6 C7 7.65 7 9.3 7 11 C8.32 11.33 9.64 11.66 11 12 C10.67 13.65 10.34 15.3 10 17 C9.67 16.34 9.34 15.68 9 15 C5.43476181 15.61118369 2.33726069 16.62022499 -1 18 C-1.02684312 15.18743719 -1.04676188 12.37512759 -1.0625 9.5625 C-1.07087891 8.76005859 -1.07925781 7.95761719 -1.08789062 7.13085938 C-1.0965143 5.08704779 -1.0522815 3.04316098 -1 1 C-0.67 0.67 -0.34 0.34 0 0 Z " fill="#D9BB6D" transform="translate(117,32)"/>
<path d="M0 0 C0.66 0 1.32 0 2 0 C2.33 0.66 2.66 1.32 3 2 C6.465 1.505 6.465 1.505 10 1 C10 1.99 10 2.98 10 4 C11.65 4 13.3 4 15 4 C15 3.34 15 2.68 15 2 C15.66 2 16.32 2 17 2 C17 3.32 17 4.64 17 6 C20.465 5.505 20.465 5.505 24 5 C24 6.32 24 7.64 24 9 C24.66 9.33 25.32 9.66 26 10 C20.375 10.25 20.375 10.25 17 8 C16.34 8.165 15.68 8.33 15 8.5 C14.34 8.665 13.68 8.83 13 9 C12.01 8.34 11.02 7.68 10 7 C9.01 7 8.02 7 7 7 C4.06553116 6.46646021 3.17413762 6.17413762 1 4 C0.01 4 -0.98 4 -2 4 C-2.33 4.99 -2.66 5.98 -3 7 C-3.33 5.68 -3.66 4.36 -4 3 C-2.68 3 -1.36 3 0 3 C0 2.01 0 1.02 0 0 Z " fill="#E9B44E" transform="translate(77,15)"/>
<path d="M0 0 C0.804375 0.12375 1.60875 0.2475 2.4375 0.375 C3.0975 1.365 3.7575 2.355 4.4375 3.375 C7.99422179 4.5938121 7.99422179 4.5938121 11.4375 5.375 C11.4375 7.025 11.4375 8.675 11.4375 10.375 C7.93124651 9.7256938 5.47207721 8.19574633 2.4375 6.375 C1.1175 6.045 -0.2025 5.715 -1.5625 5.375 C-1.5625 8.345 -1.5625 11.315 -1.5625 14.375 C-3.2125 14.705 -4.8625 15.035 -6.5625 15.375 C-6.5625 14.385 -6.5625 13.395 -6.5625 12.375 C-5.5725 12.045 -4.5825 11.715 -3.5625 11.375 C-3.5625 10.055 -3.5625 8.735 -3.5625 7.375 C-4.5525 7.045 -5.5425 6.715 -6.5625 6.375 C-5.9025 6.045 -5.2425 5.715 -4.5625 5.375 C-4.8925 4.715 -5.2225 4.055 -5.5625 3.375 C-3.76123295 1.09971531 -2.9258843 0.42817819 0 0 Z " fill="#2A2A22" transform="translate(73.5625,77.625)"/>
<path d="M0 0 C2.42705028 2.23487914 4.05926167 4.5096917 5.6875 7.375 C6.34298828 8.50035156 6.34298828 8.50035156 7.01171875 9.6484375 C8.11599474 12.27600329 8.18446068 14.17825015 8 17 C0.75 17 0.75 17 -3 16 C-3 14.68 -3 13.36 -3 12 C-2.01 12 -1.02 12 0 12 C-0.20625 11.38125 -0.4125 10.7625 -0.625 10.125 C-0.810625 9.073125 -0.810625 9.073125 -1 8 C-0.34 7.34 0.32 6.68 1 6 C0.67801034 2.90073181 0.67801034 2.90073181 0 0 Z " fill="#F7D978" transform="translate(89,72)"/>
<path d="M0 0 C0.33 0 0.66 0 1 0 C2.69731056 7.74594281 3.23309564 15.02289611 3.0625 22.9375 C3.02801549 24.94654184 2.99788719 26.95566439 2.97265625 28.96484375 C2.94570679 30.27376587 2.94570679 30.27376587 2.91821289 31.60913086 C2.90785817 33.9852427 2.90785817 33.9852427 3.58374023 36.14282227 C4 38 4 38 2.6875 40.75 C2.130625 41.4925 1.57375 42.235 1 43 C0.34 43 -0.32 43 -1 43 C-0.67 28.81 -0.34 14.62 0 0 Z " fill="#F0DC88" transform="translate(116,50)"/>
<path d="M0 0 C12.87 0 25.74 0 39 0 C39.495 2.475 39.495 2.475 40 5 C37 6 37 6 34.8125 5.0625 C34.214375 4.711875 33.61625 4.36125 33 4 C33 4.99 33 5.98 33 7 C30.03 6.67 27.06 6.34 24 6 C24.33 5.01 24.66 4.02 25 3 C26.32 3 27.64 3 29 3 C29 3.66 29 4.32 29 5 C29.66 5 30.32 5 31 5 C31.33 4.01 31.66 3.02 32 2 C33.98 2.33 35.96 2.66 38 3 C38 2.34 38 1.68 38 1 C25.46 1 12.92 1 0 1 C0 0.67 0 0.34 0 0 Z " fill="#1B100C" transform="translate(59,128)"/>
<path d="M0 0 C0.87935211 0.00141495 1.75870422 0.0028299 2.66470337 0.00428772 C5.45619192 0.00985748 8.24759844 0.02240435 11.0390625 0.03515625 C12.93880092 0.04017516 14.8385406 0.04473738 16.73828125 0.04882812 C21.38023964 0.059817 26.02213719 0.07706068 30.6640625 0.09765625 C30.6640625 0.42765625 30.6640625 0.75765625 30.6640625 1.09765625 C17.7940625 1.09765625 4.9240625 1.09765625 -8.3359375 1.09765625 C-8.3359375 2.41765625 -8.3359375 3.73765625 -8.3359375 5.09765625 C-4.8709375 4.60265625 -4.8709375 4.60265625 -1.3359375 4.09765625 C-1.3359375 5.08765625 -1.3359375 6.07765625 -1.3359375 7.09765625 C-0.6759375 7.42765625 -0.0159375 7.75765625 0.6640625 8.09765625 C-3.2959375 7.76765625 -7.2559375 7.43765625 -11.3359375 7.09765625 C-11.0059375 6.10765625 -10.6759375 5.11765625 -10.3359375 4.09765625 C-12.8109375 3.10765625 -12.8109375 3.10765625 -15.3359375 2.09765625 C-15.3359375 1.76765625 -15.3359375 1.43765625 -15.3359375 1.09765625 C-10.17525259 0.04289109 -5.23881743 -0.0320374 0 0 Z " fill="#11151F" transform="translate(67.3359375,126.90234375)"/>
<path d="M0 0 C0.66 0 1.32 0 2 0 C2 0.99 2 1.98 2 3 C5.465 2.505 5.465 2.505 9 2 C9 1.34 9 0.68 9 0 C9.66 0.33 10.32 0.66 11 1 C10.814375 1.556875 10.62875 2.11375 10.4375 2.6875 C9.92448835 5.399133 10.3359276 7.34371039 11 10 C10.01 9.34 9.02 8.68 8 8 C8 7.34 8 6.68 8 6 C6.35 6 4.7 6 3 6 C2.67 6.99 2.34 7.98 2 9 C0.35 9.33 -1.3 9.66 -3 10 C-4 5.25 -4 5.25 -4 3 C-2.68 2.67 -1.36 2.34 0 2 C0 1.34 0 0.68 0 0 Z " fill="#F4EB94" transform="translate(68,72)"/>
<path d="M0 0 C0.66 0 1.32 0 2 0 C2.33 0.66 2.66 1.32 3 2 C5.52733235 2.65555119 5.52733235 2.65555119 8 3 C8 5.97 8 8.94 8 12 C5.69 12 3.38 12 1 12 C0.896875 11.05125 0.79375 10.1025 0.6875 9.125 C0.31460705 5.70892499 0.31460705 5.70892499 -3 4 C-1.625 2 -1.625 2 0 0 Z " fill="#03132D" transform="translate(63,91)"/>
<path d="M0 0 C-0.33 3.3 -0.66 6.6 -1 10 C-2.99954746 10.04254356 -5.00041636 10.04080783 -7 10 C-7.33 9.67 -7.66 9.34 -8 9 C-8.66 10.32 -9.32 11.64 -10 13 C-9.67 9.7 -9.34 6.4 -9 3 C-2.25 0 -2.25 0 0 0 Z " fill="#F2CA63" transform="translate(59,86)"/>
<path d="M0 0 C0.99 1.32 1.98 2.64 3 4 C3.66 3.67 4.32 3.34 5 3 C7.85984547 5.51632049 9.41468822 8.33885553 11.1875 11.6875 C11.71730469 12.68136719 12.24710938 13.67523438 12.79296875 14.69921875 C13.19128906 15.45847656 13.58960937 16.21773437 14 17 C13.01 16.67 12.02 16.34 11 16 C11 15.34 11 14.68 11 14 C10.21625 13.9175 9.4325 13.835 8.625 13.75 C6 13 6 13 4.6875 10.9375 C4.3471875 9.9784375 4.3471875 9.9784375 4 9 C3.01 9.33 2.02 9.66 1 10 C-0.04449911 6.86650268 0.06576355 6.01031744 1 3 C0.01 2.67 -0.98 2.34 -2 2 C-1.34 1.34 -0.68 0.68 0 0 Z " fill="#F2C65C" transform="translate(66,38)"/>
<path d="M0 0 C1.8125 0.9375 1.8125 0.9375 3.0625 3.5 C3.31 4.304375 3.5575 5.10875 3.8125 5.9375 C3.1525 5.9375 2.4925 5.9375 1.8125 5.9375 C1.8125 6.9275 1.8125 7.9175 1.8125 8.9375 C0.8225 9.2675 -0.1675 9.5975 -1.1875 9.9375 C-1.5175 8.9475 -1.8475 7.9575 -2.1875 6.9375 C-5.2620356 7.7138932 -5.2620356 7.7138932 -7.1875 9.9375 C-7.1875 7.2975 -7.1875 4.6575 -7.1875 1.9375 C-4.68448229 0.75551941 -2.79148817 -0.0797568 0 0 Z " fill="#F3CE67" transform="translate(124.1875,46.0625)"/>
<path d="M0 0 C0.99 0.33 1.98 0.66 3 1 C2.34 1.66 1.68 2.32 1 3 C1 3.99 1 4.98 1 6 C1.66 6.33 2.32 6.66 3 7 C3 7.66 3 8.32 3 9 C2.34 9 1.68 9 1 9 C1.66 11.31 2.32 13.62 3 16 C1.33333333 17.66666667 -0.33333333 19.33333333 -2 21 C-2.33 20.34 -2.66 19.68 -3 19 C-3.66 19.33 -4.32 19.66 -5 20 C-4.505 15.545 -4.505 15.545 -4 11 C-3.01 11 -2.02 11 -1 11 C-1.01160156 10.37351562 -1.02320313 9.74703125 -1.03515625 9.1015625 C-1.04417969 8.28429687 -1.05320313 7.46703125 -1.0625 6.625 C-1.07410156 5.81289062 -1.08570313 5.00078125 -1.09765625 4.1640625 C-1 2 -1 2 0 0 Z " fill="#E8DF8F" transform="translate(133,65)"/>
<path d="M0 0 C0.33 0 0.66 0 1 0 C1 6.93 1 13.86 1 21 C-6.875 22.125 -6.875 22.125 -10 21 C-10.33 18.36 -10.66 15.72 -11 13 C-10.01 13.33 -9.02 13.66 -8 14 C-8 15.98 -8 17.96 -8 20 C-5.69 20 -3.38 20 -1 20 C-1 17.03 -1 14.06 -1 11 C-2.32 10.67 -3.64 10.34 -5 10 C-3.35 9.67 -1.7 9.34 0 9 C0 6.03 0 3.06 0 0 Z " fill="#171619" transform="translate(72,83)"/>
<path d="M0 0 C2.31 0 4.62 0 7 0 C7.33 0.99 7.66 1.98 8 3 C6.5625 5.1875 6.5625 5.1875 5 7 C5.99 7 6.98 7 8 7 C8 9.64 8 12.28 8 15 C8.66 15 9.32 15 10 15 C9.67 17.64 9.34 20.28 9 23 C8.01 22.67 7.02 22.34 6 22 C6.875 18.125 6.875 18.125 8 17 C7.01 16.34 6.02 15.68 5 15 C5.33 13.35 5.66 11.7 6 10 C5.01 9.34 4.02 8.68 3 8 C3.33 6.02 3.66 4.04 4 2 C2.68 2 1.36 2 0 2 C0 1.34 0 0.68 0 0 Z " fill="#26291D" transform="translate(127,49)"/>
<path d="M0 0 C7.18487395 2.07563025 7.18487395 2.07563025 9 5 C9.1875 8.6875 9.1875 8.6875 9 12 C8.67 12 8.34 12 8 12 C8 10.35 8 8.7 8 7 C6.35 7.33 4.7 7.66 3 8 C2.67 8.99 2.34 9.98 2 11 C1.34 11 0.68 11 0 11 C0 7.37 0 3.74 0 0 Z " fill="#E6D287" transform="translate(74,83)"/>
<path d="M0 0 C2.64 0.33 5.28 0.66 8 1 C8 1.66 8 2.32 8 3 C6.68 3.33 5.36 3.66 4 4 C4 5.65 4 7.3 4 9 C1.69 9.33 -0.62 9.66 -3 10 C-3.33 9.01 -3.66 8.02 -4 7 C-2.625 5 -2.625 5 -1 3 C-0.67 2.01 -0.34 1.02 0 0 Z " fill="#E5A43A" transform="translate(122,100)"/>
<path d="M0 0 C0.66 0 1.32 0 2 0 C2.28875 0.78375 2.5775 1.5675 2.875 2.375 C3.84912254 5.09671632 3.84912254 5.09671632 6 7 C6 7.99 6 8.98 6 10 C6.66 10 7.32 10 8 10 C8.83819158 11.62249941 9.6704116 13.24808497 10.5 14.875 C10.9640625 15.77992187 11.428125 16.68484375 11.90625 17.6171875 C13 20 13 20 13 22 C13.66 22 14.32 22 15 22 C15.66 23.65 16.32 25.3 17 27 C16.01 27 15.02 27 14 27 C12.0007529 23.47928939 10.00707831 19.95548996 8.01855469 16.42871094 C7.34105082 15.22895097 6.66202019 14.03005184 5.98144531 12.83203125 C5.0044672 11.11163831 4.03339468 9.38789591 3.0625 7.6640625 C2.47597656 6.62717285 1.88945313 5.5902832 1.28515625 4.52197266 C0 2 0 2 0 0 Z " fill="#1A1615" transform="translate(60,19)"/>
<path d="M0 0 C2 2 2 2 2.125 4.625 C2.08375 5.40875 2.0425 6.1925 2 7 C0.68 7 -0.64 7 -2 7 C-1.649375 7.78375 -1.29875 8.5675 -0.9375 9.375 C-0.628125 10.24125 -0.31875 11.1075 0 12 C-0.33 12.66 -0.66 13.32 -1 14 C-1.99 14 -2.98 14 -4 14 C-4.33 14.66 -4.66 15.32 -5 16 C-4.67 11.71 -4.34 7.42 -4 3 C-3.67 3.66 -3.34 4.32 -3 5 C-2.01 5 -1.02 5 0 5 C-0.2784375 4.0409375 -0.2784375 4.0409375 -0.5625 3.0625 C-0.706875 2.381875 -0.85125 1.70125 -1 1 C-0.67 0.67 -0.34 0.34 0 0 Z " fill="#13191F" transform="translate(22,47)"/>
<path d="M0 0 C12.54 0 25.08 0 38 0 C38 0.66 38 1.32 38 2 C37.0620459 1.99476318 36.1240918 1.98952637 35.15771484 1.98413086 C31.65770852 1.96702703 28.15774701 1.95451973 24.65771484 1.94506836 C23.14663998 1.94005838 21.63556991 1.93324856 20.12451172 1.92456055 C17.94497488 1.91234824 15.76550247 1.90673822 13.5859375 1.90234375 C12.2767334 1.89710693 10.9675293 1.89187012 9.61865234 1.88647461 C6.30986487 1.99027883 3.24404982 2.36567632 0 3 C0 2.01 0 1.02 0 0 Z " fill="#8C6743" transform="translate(59,129)"/>
<path d="M0 0 C2.475 0.495 2.475 0.495 5 1 C5.50367757 2.45706726 6.00282556 3.91570096 6.5 5.375 C6.91765625 6.59316406 6.91765625 6.59316406 7.34375 7.8359375 C8 10 8 10 8 12 C7.01 12 6.02 12 5 12 C4.67 10.68 4.34 9.36 4 8 C2.68 7.67 1.36 7.34 0 7 C0 4.69 0 2.38 0 0 Z " fill="#D7A54C" transform="translate(25,99)"/>
<path d="M0 0 C3 3.625 3 3.625 3 7 C2.34 7 1.68 7 1 7 C1 7.66 1 8.32 1 9 C0.34 9 -0.32 9 -1 9 C-1 9.763125 -1 10.52625 -1 11.3125 C-2 14 -2 14 -3.77734375 15 C-9.09465144 17 -9.09465144 17 -12 17 C-11.505 15.515 -11.505 15.515 -11 14 C-7.535 13.505 -7.535 13.505 -4 13 C-3.67 10.69 -3.34 8.38 -3 6 C-2.01 5.67 -1.02 5.34 0 5 C0 3.35 0 1.7 0 0 Z " fill="#CEA85A" transform="translate(88,91)"/>
<path d="M0 0 C0.99 0 1.98 0 3 0 C3.16789126 2.43742131 3.33436133 4.87492546 3.5 7.3125 C3.54769531 8.00279297 3.59539063 8.69308594 3.64453125 9.40429688 C3.83879489 12.27662359 4 15.12013788 4 18 C2.35 17.67 0.7 17.34 -1 17 C-1 16.34 -1 15.68 -1 15 C-0.34 14.67 0.32 14.34 1 14 C1 13.01 1 12.02 1 11 C0.34 10.67 -0.32 10.34 -1 10 C-0.835 8.906875 -0.67 7.81375 -0.5 6.6875 C0.06718184 3.12474127 0.06718184 3.12474127 0 0 Z " fill="#E1D894" transform="translate(18,68)"/>
<path d="M0 0 C7 8.20689655 7 8.20689655 7 13 C5.35 13.33 3.7 13.66 2 14 C0.02905192 9.07262981 -0.1799928 5.21979128 0 0 Z " fill="#EEDB85" transform="translate(80,56)"/>
<path d="M0 0 C0.66 0 1.32 0 2 0 C2.33 1.65 2.66 3.3 3 5 C2.01 4.67 1.02 4.34 0 4 C-0.33 5.98 -0.66 7.96 -1 10 C-2.65 10 -4.3 10 -6 10 C-6 10.99 -6 11.98 -6 13 C-6.66 13 -7.32 13 -8 13 C-7.67 11.68 -7.34 10.36 -7 9 C-5.68 9 -4.36 9 -3 9 C-3.350625 8.21625 -3.70125 7.4325 -4.0625 6.625 C-4.371875 5.75875 -4.68125 4.8925 -5 4 C-4.67 3.34 -4.34 2.68 -4 2 C-2.68 2 -1.36 2 0 2 C0 1.34 0 0.68 0 0 Z " fill="#13151A" transform="translate(133,94)"/>
<path d="M0 0 C0.99 0.33 1.98 0.66 3 1 C4.1875 3.5625 4.1875 3.5625 5 6 C4.01 6.33 3.02 6.66 2 7 C2.33 8.98 2.66 10.96 3 13 C2.01 13 1.02 13 0 13 C-0.39222105 11.58800422 -0.76311059 10.17007236 -1.125 8.75 C-1.33382812 7.96109375 -1.54265625 7.1721875 -1.7578125 6.359375 C-2.04314411 3.5796929 -1.44977894 2.34112451 0 0 Z " fill="#D8C376" transform="translate(130,83)"/>
<path d="M0 0 C1.125 3.75 1.125 3.75 0 6 C0.99 6 1.98 6 3 6 C3.625 8.375 3.625 8.375 4 11 C3.34 11.66 2.68 12.32 2 13 C1.67 11.35 1.34 9.7 1 8 C0.01 8 -0.98 8 -2 8 C-2.33 8.99 -2.66 9.98 -3 11 C-3.99 10.34 -4.98 9.68 -6 9 C-6 8.34 -6 7.68 -6 7 C-4.68 7 -3.36 7 -2 7 C-1.34 4.69 -0.68 2.38 0 0 Z " fill="#222225" transform="translate(22,93)"/>
<path d="M0 0 C0.66 0 1.32 0 2 0 C2 0.99 2 1.98 2 3 C2.66 3.33 3.32 3.66 4 4 C2.8125 6 2.8125 6 1 8 C-1.6875 8.25 -1.6875 8.25 -4 8 C-4 6.35 -4 4.7 -4 3 C-2.68 2.67 -1.36 2.34 0 2 C0 1.34 0 0.68 0 0 Z " fill="#FAEC87" transform="translate(68,72)"/>
<path d="M0 0 C-1.875 5.75 -1.875 5.75 -3 8 C-3.66 8 -4.32 8 -5 8 C-4.67 9.98 -4.34 11.96 -4 14 C-4.66 14 -5.32 14 -6 14 C-6 9.71 -6 5.42 -6 1 C-4 0 -4 0 0 0 Z " fill="#EABA53" transform="translate(55,24)"/>
<path d="M0 0 C-1.875 3.875 -1.875 3.875 -3 5 C-5.67058851 5.14115161 -8.32432238 5.04247107 -11 5 C-11 4.01 -11 3.02 -11 2 C-7.12315913 0.80712589 -4.08378077 0 0 0 Z " fill="#E8A432" transform="translate(90,104)"/>
<path d="M0 0 C0.66 0 1.32 0 2 0 C1.690625 0.9075 1.38125 1.815 1.0625 2.75 C-0.00209743 5.81779483 -0.00209743 5.81779483 -0.5 8.3125 C-0.665 8.869375 -0.83 9.42625 -1 10 C-1.99 10.495 -1.99 10.495 -3 11 C-3.66 11.99 -4.32 12.98 -5 14 C-5.33 12.68 -5.66 11.36 -6 10 C-4.68 9.67 -3.36 9.34 -2 9 C-2.66 8.01 -3.32 7.02 -4 6 C-4 5.01 -4 4.02 -4 3 C-2.68 2.67 -1.36 2.34 0 2 C0 1.34 0 0.68 0 0 Z " fill="#111519" transform="translate(137,80)"/>
<path d="M0 0 C0.33 0 0.66 0 1 0 C1 2.64 1 5.28 1 8 C0.34 8 -0.32 8 -1 8 C-2.6446674 10.46326712 -2.6446674 10.46326712 -4 13 C-5.65 12.67 -7.3 12.34 -9 12 C-7.68 11.34 -6.36 10.68 -5 10 C-5 8.35 -5 6.7 -5 5 C-3.68 4.67 -2.36 4.34 -1 4 C-0.67 2.68 -0.34 1.36 0 0 Z " fill="#D5BA75" transform="translate(32,36)"/>
<path d="M0 0 C3.80666984 1.44390925 5.26602582 3.34952803 7 7 C6.67 7.66 6.34 8.32 6 9 C5.01 9 4.02 9 3 9 C2.34 8.01 1.68 7.02 1 6 C0.34 5.67 -0.32 5.34 -1 5 C-0.67 3.35 -0.34 1.7 0 0 Z " fill="#DFB75E" transform="translate(65,33)"/>
<path d="M0 0 C2.70886941 0.16798262 2.70886941 0.16798262 5 0 C3.8125 1.5625 3.8125 1.5625 2 3 C-0.6875 2.6875 -0.6875 2.6875 -3 2 C-3 1.34 -3 0.68 -3 0 C-3.66 0 -4.32 0 -5 0 C-5 0.66 -5 1.32 -5 2 C-6.65 2 -8.3 2 -10 2 C-10 1.34 -10 0.68 -10 0 C-5.79699466 -2.1615456 -4.2217993 -1.89980968 0 0 Z " fill="#10151E" transform="translate(82,15)"/>
<path d="M0 0 C2.31 0 4.62 0 7 0 C7.125 2.875 7.125 2.875 7 6 C6.34 6.66 5.68 7.32 5 8 C3 6 1 4 -1 2 C-0.67 1.34 -0.34 0.68 0 0 Z " fill="#AE9351" transform="translate(77,90)"/>
<path d="M0 0 C0.99 0 1.98 0 3 0 C3 0.66 3 1.32 3 2 C3.66 2 4.32 2 5 2 C4.67 3.98 4.34 5.96 4 8 C2.68 8 1.36 8 0 8 C0 5.36 0 2.72 0 0 Z " fill="#EFC25B" transform="translate(117,38)"/>
<path d="M0 0 C3.8671875 1.6875 3.8671875 1.6875 5.0625 4.5 C5.371875 5.325 5.68125 6.15 6 7 C6.99 7.66 7.98 8.32 9 9 C9.70052461 11.663063 9.77744818 14.24035737 10 17 C6.95591696 13.43312878 4.78917799 9.90489084 2.75 5.6875 C1.96882813 4.08455078 1.96882813 4.08455078 1.171875 2.44921875 C0.78515625 1.64097656 0.3984375 0.83273438 0 0 Z " fill="#DCBE73" transform="translate(83,36)"/>
<path d="M0 0 C0.66 0 1.32 0 2 0 C2.33 0.66 2.66 1.32 3 2 C6.465 1.505 6.465 1.505 10 1 C10 1.99 10 2.98 10 4 C11.32 4.33 12.64 4.66 14 5 C8.72 4.67 3.44 4.34 -2 4 C-2.33 4.99 -2.66 5.98 -3 7 C-3.33 5.68 -3.66 4.36 -4 3 C-2.68 3 -1.36 3 0 3 C0 2.01 0 1.02 0 0 Z " fill="#BDA068" transform="translate(77,15)"/>
<path d="M0 0 C0.66 0.33 1.32 0.66 2 1 C1.67 3.97 1.34 6.94 1 10 C-0.65 10.33 -2.3 10.66 -4 11 C-4 10.01 -4 9.02 -4 8 C-3.01 7.67 -2.02 7.34 -1 7 C-1 5.68 -1 4.36 -1 3 C-1.99 2.67 -2.98 2.34 -4 2 C-2.125 0.9375 -2.125 0.9375 0 0 Z " fill="#494D4F" transform="translate(71,82)"/>
<path d="M0 0 C0.99 0.99 1.98 1.98 3 3 C3 3.66 3 4.32 3 5 C3.66 5 4.32 5 5 5 C5 6.65 5 8.3 5 10 C3.02 10.99 3.02 10.99 1 12 C0.67 8.04 0.34 4.08 0 0 Z " fill="#16120F" transform="translate(83,86)"/>
<path d="M0 0 C0.66 0 1.32 0 2 0 C3.63863397 2.43133054 5.14921334 4.84771535 6.625 7.375 C7.04523438 8.07367188 7.46546875 8.77234375 7.8984375 9.4921875 C11 14.72859172 11 14.72859172 11 17 C8 16 8 16 6.71875 13.85546875 C6.3165625 12.97503906 5.914375 12.09460937 5.5 11.1875 C4.26391514 8.50535434 3.12296175 6.16327233 1.34375 3.80078125 C0 2 0 2 0 0 Z " fill="#1E1A13" transform="translate(72,20)"/>
<path d="M0 0 C0.33 0 0.66 0 1 0 C1.19585135 2.39541268 1.38192107 4.79092774 1.5625 7.1875 C1.61857422 7.86103516 1.67464844 8.53457031 1.73242188 9.22851562 C2.00963763 13.017131 1.96511161 16.31827794 1 20 C1.99 20.33 2.98 20.66 4 21 C2.68 21 1.36 21 0 21 C-1.07875823 13.80827843 -0.7938642 7.21805755 0 0 Z " fill="#80724F" transform="translate(73,83)"/>
<path d="M0 0 C1.32 0 2.64 0 4 0 C4 2.31 4 4.62 4 7 C3.01 7.33 2.02 7.66 1 8 C1 9.65 1 11.3 1 13 C-2 9.25 -2 9.25 -2 7 C-1.01 7 -0.02 7 1 7 C0.67 4.69 0.34 2.38 0 0 Z " fill="#D2C687" transform="translate(20,54)"/>
<path d="M0 0 C0.33 0 0.66 0 1 0 C1 5.28 1 10.56 1 16 C-0.65 15.67 -2.3 15.34 -4 15 C-4.33 14.01 -4.66 13.02 -5 12 C-3.68 12 -2.36 12 -1 12 C-0.67 8.04 -0.34 4.08 0 0 Z " fill="#EFD988" transform="translate(102,48)"/>
<path d="M0 0 C0.66 0 1.32 0 2 0 C2.33 1.98 2.66 3.96 3 6 C2.01 6 1.02 6 0 6 C0 9.96 0 13.92 0 18 C-0.33 18 -0.66 18 -1 18 C-1.02684312 15.18743719 -1.04676188 12.37512759 -1.0625 9.5625 C-1.07087891 8.76005859 -1.07925781 7.95761719 -1.08789062 7.13085938 C-1.0965143 5.08704779 -1.0522815 3.04316098 -1 1 C-0.67 0.67 -0.34 0.34 0 0 Z " fill="#C6AC70" transform="translate(117,32)"/>
<path d="M0 0 C0.33 0.99 0.66 1.98 1 3 C1.804375 3.12375 2.60875 3.2475 3.4375 3.375 C4.7059375 3.684375 4.7059375 3.684375 6 4 C6.33 4.66 6.66 5.32 7 6 C7.99 6.66 8.98 7.32 10 8 C2.25 7.25 2.25 7.25 0 5 C-0.99 5.495 -0.99 5.495 -2 6 C-1.34 4.02 -0.68 2.04 0 0 Z " fill="#141F2F" transform="translate(92,57)"/>
<path d="M0 0 C0.66 0 1.32 0 2 0 C2 1.32 2 2.64 2 4 C5.465 3.505 5.465 3.505 9 3 C9 4.32 9 5.64 9 7 C9.66 7.33 10.32 7.66 11 8 C8.3125 8.3125 8.3125 8.3125 5 8 C2.125 5.6875 2.125 5.6875 0 3 C0 2.01 0 1.02 0 0 Z " fill="#C9A562" transform="translate(92,17)"/>
<path d="M0 0 C2 2 2 2 2.1875 5.0625 C2 8 2 8 1 9 C-0.66617115 9.04063832 -2.33388095 9.042721 -4 9 C-3.34 8.34 -2.68 7.68 -2 7 C-2 6.01 -2 5.02 -2 4 C-1 1.8125 -1 1.8125 0 0 Z " fill="#2B2318" transform="translate(83,96)"/>
<path d="M0 0 C2.72675159 2.40689803 4.11966596 4.92471023 5.6875 8.1875 C6.12449219 9.08855469 6.56148438 9.98960938 7.01171875 10.91796875 C7.33785156 11.60503906 7.66398437 12.29210937 8 13 C7.01 13 6.02 13 5 13 C4.34 10.69 3.68 8.38 3 6 C2.34 6 1.68 6 1 6 C0.67 4.02 0.34 2.04 0 0 Z " fill="#E3D993" transform="translate(89,72)"/>
<path d="M0 0 C3.51098025 4.01254885 5.76537994 8.20983041 8 13 C7.01 12.67 6.02 12.34 5 12 C5 11.34 5 10.68 5 10 C3.68 9.67 2.36 9.34 1 9 C0.67 6.03 0.34 3.06 0 0 Z " fill="#DABF75" transform="translate(72,42)"/>
<path d="M0 0 C2.97 0.495 2.97 0.495 6 1 C4.50902342 4.7952131 2.24299151 6.61042731 -1 9 C-0.67 6.03 -0.34 3.06 0 0 Z " fill="#F7E37B" transform="translate(50,79)"/>
<path d="M0 0 C1.32 0 2.64 0 4 0 C2.99489025 3.01532925 2.53844009 4.18682851 0 6 C-2.6875 5.6875 -2.6875 5.6875 -5 5 C-5.33 5.99 -5.66 6.98 -6 8 C-6 6.68 -6 5.36 -6 4 C-4.02 4 -2.04 4 0 4 C0 2.68 0 1.36 0 0 Z " fill="#31291F" transform="translate(54,17)"/>
<path d="M0 0 C2.64 0.33 5.28 0.66 8 1 C8 1.66 8 2.32 8 3 C6.68 3.33 5.36 3.66 4 4 C4 5.65 4 7.3 4 9 C2.68 8.67 1.36 8.34 0 8 C0.66 8 1.32 8 2 8 C1.34 5.36 0.68 2.72 0 0 Z " fill="#C09A54" transform="translate(122,100)"/>
<path d="M0 0 C0.99 0.66 1.98 1.32 3 2 C2.25 3.9375 2.25 3.9375 1 6 C-1.125 6.75 -1.125 6.75 -3 7 C-3 5.68 -3 4.36 -3 3 C-2.01 3 -1.02 3 0 3 C0 2.01 0 1.02 0 0 Z " fill="#F5D76A" transform="translate(90,82)"/>
<path d="M0 0 C0.99 0.66 1.98 1.32 3 2 C3.1875 5.125 3.1875 5.125 3 8 C1.68 8.33 0.36 8.66 -1 9 C-0.67 7.35 -0.34 5.7 0 4 C-0.66 3.67 -1.32 3.34 -2 3 C-1.34 2.01 -0.68 1.02 0 0 Z " fill="#E5CE7A" transform="translate(59,82)"/>
<path d="M0 0 C0.33 0 0.66 0 1 0 C1 5.28 1 10.56 1 16 C0.34 16 -0.32 16 -1 16 C-1 14.35 -1 12.7 -1 11 C-2.32 10.67 -3.64 10.34 -5 10 C-3.35 9.67 -1.7 9.34 0 9 C0 6.03 0 3.06 0 0 Z " fill="#0C0D0E" transform="translate(72,83)"/>
<path d="M0 0 C0.66 0.33 1.32 0.66 2 1 C2.4140625 3.06640625 2.4140625 3.06640625 2.625 5.5625 C2.69976562 6.38878906 2.77453125 7.21507813 2.8515625 8.06640625 C2.90054688 8.70449219 2.94953125 9.34257813 3 10 C2.01 10.495 2.01 10.495 1 11 C-2.125 4.375 -2.125 4.375 -1 1 C-0.67 0.67 -0.34 0.34 0 0 Z " fill="#F7E681" transform="translate(130,64)"/>
<path d="M0 0 C1.98 0.99 3.96 1.98 6 3 C6 4.98 6 6.96 6 9 C6.99 9.33 7.98 9.66 9 10 C7.35 9.67 5.7 9.34 4 9 C4.33 7.35 4.66 5.7 5 4 C3.35 3.67 1.7 3.34 0 3 C0 2.01 0 1.02 0 0 Z " fill="#1A1513" transform="translate(123,40)"/>
<path d="M0 0 C1.32 0 2.64 0 4 0 C4 0.66 4 1.32 4 2 C4.66 2 5.32 2 6 2 C6.33 1.34 6.66 0.68 7 0 C7.33 1.32 7.66 2.64 8 4 C5.03 3.67 2.06 3.34 -1 3 C-0.67 2.01 -0.34 1.02 0 0 Z " fill="#2E1E15" transform="translate(84,131)"/>
<path d="M0 0 C2.31 0.33 4.62 0.66 7 1 C5.25 4.875 5.25 4.875 3 6 C2.34 5.67 1.68 5.34 1 5 C0.375 2.4375 0.375 2.4375 0 0 Z " fill="#E7C86F" transform="translate(23,48)"/>
<path d="M0 0 C2.62386487 3.06117568 3 3.73173127 3 8 C1.68 8.33 0.36 8.66 -1 9 C-0.67 6.03 -0.34 3.06 0 0 Z " fill="#E2C46C" transform="translate(97,85)"/>
<path d="M0 0 C1.32 0.33 2.64 0.66 4 1 C4 1.66 4 2.32 4 3 C3.195625 3.226875 2.39125 3.45375 1.5625 3.6875 C0.716875 4.120625 -0.12875 4.55375 -1 5 C-1.89386164 7.54775306 -1.89386164 7.54775306 -2 10 C-2.33 10 -2.66 10 -3 10 C-3.36923077 4.58461538 -3.36923077 4.58461538 -1.5 1.625 C-1.005 1.08875 -0.51 0.5525 0 0 Z " fill="#F6D66E" transform="translate(52,84)"/>
<path d="M0 0 C0.33 0 0.66 0 1 0 C1 2.64 1 5.28 1 8 C0.01 8.33 -0.98 8.66 -2 9 C-2.66 8.34 -3.32 7.68 -4 7 C-3.34 6.01 -2.68 5.02 -2 4 C-1.34 4 -0.68 4 0 4 C0 2.68 0 1.36 0 0 Z " fill="#F6D66F" transform="translate(101,52)"/>
<path d="M0 0 C4.82142857 5.78571429 4.82142857 5.78571429 6 9 C5.67 9.99 5.34 10.98 5 12 C2.26629955 9.63907689 1.08902355 7.43461272 0 4 C0 2.68 0 1.36 0 0 Z " fill="#161916" transform="translate(91,51)"/>
<path d="M0 0 C2.96865509 2.54456151 4.3619751 5.48994665 6 9 C4.125 8.6875 4.125 8.6875 2 8 C-0.1519437 4.77208445 -0.20086443 3.71599191 0 0 Z " fill="#C9A458" transform="translate(62,25)"/>
<path d="M0 0 C2.475 0.99 2.475 0.99 5 2 C5 2.66 5 3.32 5 4 C6.65 4 8.3 4 10 4 C8 5 6 6 4 7 C2.02 3.535 2.02 3.535 0 0 Z " fill="#B98941" transform="translate(66,104)"/>
<path d="M0 0 C0.66 0 1.32 0 2 0 C2 1.98 2 3.96 2 6 C0.68 6 -0.64 6 -2 6 C-1.34 4.02 -0.68 2.04 0 0 Z " fill="#E8B14A" transform="translate(59,98)"/>
<path d="M0 0 C1.9375 0.8125 1.9375 0.8125 4 2 C4.33 2.99 4.66 3.98 5 5 C3.68 5.99 2.36 6.98 1 8 C0.67 5.36 0.34 2.72 0 0 Z " fill="#D7AF55" transform="translate(78,94)"/>
<path d="M0 0 C0.66 0 1.32 0 2 0 C2.33 1.65 2.66 3.3 3 5 C0.525 4.01 0.525 4.01 -2 3 C-2.33 3.99 -2.66 4.98 -3 6 C-3.66 6 -4.32 6 -5 6 C-4.67 4.68 -4.34 3.36 -4 2 C-2.68 2 -1.36 2 0 2 C0 1.34 0 0.68 0 0 Z " fill="#1C1E1E" transform="translate(133,94)"/>
<path d="M0 0 C0.99 1.32 1.98 2.64 3 4 C2.01 4.33 1.02 4.66 0 5 C-0.33 6.98 -0.66 8.96 -1 11 C-1.33 11 -1.66 11 -2 11 C-2 8.03 -2 5.06 -2 2 C-1.34 2 -0.68 2 0 2 C0 1.34 0 0.68 0 0 Z " fill="#EBC168" transform="translate(76,92)"/>
<path d="M0 0 C0.77321882 2.98241547 1.41196203 5.97580475 2 9 C1.566875 8.54625 1.13375 8.0925 0.6875 7.625 C-1.10798342 5.79975666 -1.10798342 5.79975666 -4 4 C-2.68 2.68 -1.36 1.36 0 0 Z " fill="#E7CD7A" transform="translate(23,87)"/>
<path d="M0 0 C1.98 0.99 1.98 0.99 4 2 C3.67 2.66 3.34 3.32 3 4 C3.66 4.33 4.32 4.66 5 5 C3.35 5.66 1.7 6.32 0 7 C0 4.69 0 2.38 0 0 Z " fill="#F0D372" transform="translate(75,85)"/>
<path d="M0 0 C0.66 0.99 1.32 1.98 2 3 C-0.46153846 6.81538462 -0.46153846 6.81538462 -3.1875 7.75 C-3.785625 7.8325 -4.38375 7.915 -5 8 C-5 7.34 -5 6.68 -5 6 C-4.01 6 -3.02 6 -2 6 C-2.33 4.68 -2.66 3.36 -3 2 C-2.01 1.34 -1.02 0.68 0 0 Z " fill="#FBE483" transform="translate(91,78)"/>
<path d="M0 0 C2.97 0.495 2.97 0.495 6 1 C6.33 2.98 6.66 4.96 7 7 C5.68 6.67 4.36 6.34 3 6 C3 4.35 3 2.7 3 1 C2.01 1.33 1.02 1.66 0 2 C0 1.34 0 0.68 0 0 Z " fill="#101317" transform="translate(116,31)"/>
<path d="M0 0 C0.66 0.99 1.32 1.98 2 3 C-0.3129482 5.3129482 -1.47904875 5.49580975 -4.625 6.125 C-5.44226563 6.29257813 -6.25953125 6.46015625 -7.1015625 6.6328125 C-8.04128906 6.81457031 -8.04128906 6.81457031 -9 7 C-8.67 6.01 -8.34 5.02 -8 4 C-4.535 3.505 -4.535 3.505 -1 3 C-0.67 2.01 -0.34 1.02 0 0 Z " fill="#C49C56" transform="translate(85,101)"/>
<path d="M0 0 C0.33 1.65 0.66 3.3 1 5 C-0.65 5 -2.3 5 -4 5 C-4.33 4.34 -4.66 3.68 -5 3 C-2.25 0 -2.25 0 0 0 Z " fill="#AD7E44" transform="translate(121,110)"/>
<path d="M0 0 C1.32 0.33 2.64 0.66 4 1 C3.67 2.65 3.34 4.3 3 6 C4.32 6.33 5.64 6.66 7 7 C5.35 7 3.7 7 2 7 C1.34 4.69 0.68 2.38 0 0 Z " fill="#231A13" transform="translate(26,106)"/>
<path d="M0 0 C1.98 0 3.96 0 6 0 C5.67 0.99 5.34 1.98 5 3 C3.35 3 1.7 3 0 3 C0 2.01 0 1.02 0 0 Z " fill="#E5A13E" transform="translate(79,106)"/>
<path d="M0 0 C0.66 0.33 1.32 0.66 2 1 C2 2.32 2 3.64 2 5 C1.34 5 0.68 5 0 5 C0 7.31 0 9.62 0 12 C-0.33 12 -0.66 12 -1 12 C-1.02712066 10.56260487 -1.04645067 9.12506137 -1.0625 7.6875 C-1.07410156 6.88699219 -1.08570313 6.08648437 -1.09765625 5.26171875 C-1 3 -1 3 0 0 Z " fill="#E9B650" transform="translate(50,96)"/>
<path d="M0 0 C1.32 0.33 2.64 0.66 4 1 C4 4.10551666 3.4606285 5.35261084 2 8 C1.67 8 1.34 8 1 8 C0.67 5.36 0.34 2.72 0 0 Z " fill="#FAEB87" transform="translate(20,70)"/>
<path d="M0 0 C0.82638376 2.89234315 1 4.88742431 1 8 C-0.32 7.67 -1.64 7.34 -3 7 C-1.125 2.25 -1.125 2.25 0 0 Z " fill="#F1C55D" transform="translate(31,42)"/>
<path d="M0 0 C0.66 0 1.32 0 2 0 C2 1.98 2 3.96 2 6 C1.01 6.33 0.02 6.66 -1 7 C-1.04254356 5.00045254 -1.04080783 2.99958364 -1 1 C-0.67 0.67 -0.34 0.34 0 0 Z " fill="#E09C38" transform="translate(50,107)"/>
<path d="M0 0 C0.99 0.33 1.98 0.66 3 1 C2.34 2.65 1.68 4.3 1 6 C0.01 5.67 -0.98 5.34 -2 5 C-1.34 3.35 -0.68 1.7 0 0 Z " fill="#F0CC60" transform="translate(94,88)"/>
<path d="M0 0 C1.32 0.66 2.64 1.32 4 2 C1.03 4.475 1.03 4.475 -2 7 C-2.125 4.625 -2.125 4.625 -2 2 C-1.34 1.34 -0.68 0.68 0 0 Z " fill="#2C2A23" transform="translate(64,81)"/>
<path d="M0 0 C2.31 0 4.62 0 7 0 C7.33 0.99 7.66 1.98 8 3 C7.34 3.66 6.68 4.32 6 5 C5.34 4.67 4.68 4.34 4 4 C4 3.34 4 2.68 4 2 C2.68 2 1.36 2 0 2 C0 1.34 0 0.68 0 0 Z " fill="#363735" transform="translate(127,49)"/>
</svg>
